<svg width="375" height="256" viewBox="0 0 375 256" fill="none" xmlns="http://www.w3.org/2000/svg">
<path fill-rule="evenodd" clip-rule="evenodd" d="M183.373 19.9669C179.587 22.3818 171.539 28.8592 170.604 30.2446C169.98 31.1681 170.742 31.9941 171.739 31.4761C172.017 31.3319 173.723 30.0881 175.531 28.7124C183.111 22.9433 186.434 20.2619 186.434 19.9146C186.434 19.4054 185.967 19 185.38 19C185.11 19 184.207 19.435 183.373 19.9669ZM188.646 20.456C188.51 20.9804 188.93 22.9526 189.467 24.3137L189.723 24.9635L190.598 24.3315C191.08 23.9838 191.504 23.6788 191.541 23.6537C191.656 23.5766 190.426 20.5345 190.151 20.2123C189.709 19.695 188.805 19.8413 188.646 20.456ZM193.055 30.4148C192.636 30.6662 192.294 31.0186 192.294 31.1979C192.294 31.3771 192.663 32.2353 193.114 33.105C194.401 35.585 194.368 35.6596 190.887 38.1669C187.827 40.372 185.497 42.415 185.497 42.8943C185.497 43.5814 186.814 43.4719 188.452 42.6489C189.785 41.9793 195.524 38.1817 196.503 37.3224C196.766 37.091 196.981 36.7084 196.981 36.4718C196.981 35.9733 194.18 29.9107 193.962 29.9389C193.883 29.9491 193.475 30.1634 193.055 30.4148ZM176.353 31.4028C175.414 32.5012 177.542 39.4384 180.824 45.976C182.433 49.1808 183.105 50.0019 184.035 49.8979C184.47 49.8492 184.699 49.6775 184.745 49.3637C184.782 49.1092 184.028 47.3176 183.069 45.3825C181.329 41.8726 179.658 37.4468 178.691 33.7861C178.41 32.7233 178.017 31.6747 177.818 31.4556C177.372 30.9658 176.746 30.9433 176.353 31.4028ZM172.189 33.5031C171.876 34.242 172.079 36.866 172.588 38.6667C173.221 40.9071 175.41 46.1626 176.525 48.12C178.043 50.7845 179.677 52.8975 180.22 52.8975C180.804 52.8975 181.279 52.4944 181.277 51.9989C181.276 51.8048 180.903 50.9808 180.447 50.1675C176.72 43.5184 174.317 37.8172 174.071 35.0387C174.005 34.288 173.846 33.5459 173.718 33.3894C173.375 32.9685 172.384 33.0422 172.189 33.5031ZM167.243 36.7191C166.694 37.0646 166.9 39.2459 167.676 41.3107C169.283 45.5827 175.546 55.7342 176.963 56.3605C177.646 56.6626 178.231 56.2711 178.231 55.5119C178.231 55.2287 176.843 52.7587 175.145 50.0228C171.846 44.7039 169.943 41.0839 169.001 38.3375C168.409 36.6105 168.005 36.239 167.243 36.7191ZM97.3718 37.4673C95.424 37.7895 95.4973 37.7239 95.8411 38.8346L96.1451 39.8162L97.403 39.7523C98.0949 39.7173 99.0134 39.5783 99.4442 39.4434C99.9844 39.2743 100.303 39.2714 100.47 39.4341C100.604 39.5637 100.802 40.9824 100.911 42.5867C101.229 47.2828 100.637 53.4517 99.3443 58.9263C98.4547 62.693 98.4453 62.7796 98.888 63.2092C99.4463 63.7511 100.345 63.6876 100.74 63.0781C101.128 62.4787 102.341 57.6379 102.92 54.3763C103.236 52.5981 103.323 50.7599 103.319 45.9588C103.313 39.4115 103.154 38.1744 102.235 37.5497C101.654 37.1545 99.484 37.1179 97.3718 37.4673ZM86.5906 39.2646C85.2371 39.4973 83.8761 39.819 83.566 39.9794C82.6177 40.4705 82.3718 41.4531 82.3711 44.7571C82.3709 46.419 82.2542 48.7001 82.1119 49.8263C81.8173 52.1609 80.33 58.2099 79.4487 60.6582C78.9176 62.134 78.8914 62.3567 79.1954 62.8072C79.6622 63.499 81.639 63.8382 86.0047 63.9758C88.8762 64.0664 90.0329 64.0006 92.3182 63.6168C95.1753 63.1368 95.865 62.8283 95.5967 62.1497C95.3527 61.5323 94.4489 61.4542 90.4655 61.7058C86.9794 61.9258 83.8805 61.8201 82.3132 61.4272C81.435 61.2072 81.4702 60.8466 82.725 57.2155C84.2998 52.6582 84.5295 51.3498 84.6387 46.32C84.6915 43.8912 84.7894 41.8183 84.8562 41.7131C84.923 41.6083 85.8415 41.5104 86.8974 41.4957C87.9532 41.4809 89.0907 41.404 89.4249 41.325L90.0329 41.1813L89.6879 39.9869C89.4982 39.3301 89.2775 38.8034 89.1973 38.8168C89.1172 38.8303 87.9441 39.0316 86.5906 39.2646ZM191.169 45.208C190.795 45.5709 190.81 45.9094 191.284 47.7025C191.772 49.5523 191.582 50.1072 190.161 50.9781L189.182 51.578L189.326 53.2351C189.576 56.0998 192.502 66.2404 194.077 69.6966C194.385 70.3731 194.637 70.9906 194.637 71.0688C194.637 71.1471 193.975 71.2185 193.165 71.2272C192.005 71.2397 191.428 71.3826 190.45 71.8992C187.637 73.3852 186.271 76.3341 185.266 83.089C184.529 88.0503 182.98 93.5761 182.478 93.0346C182.136 92.6647 179.647 79.191 178.71 72.6349C178.2 69.0625 178.057 61.9515 178.455 59.95C178.692 58.7584 178.466 58.3575 177.556 58.3575C176.573 58.3575 176.304 59.0748 176.041 62.3984C175.792 65.5547 176.15 70.69 176.967 75.6944C177.763 80.5613 177.847 80.0367 175.656 83.8375C170.491 92.7946 169.943 93.9192 169.04 97.4124C168.601 99.1091 168.521 100.04 168.524 103.403C168.526 105.592 168.659 108.356 168.821 109.545C170.125 119.155 170.651 121.739 172.233 126.318C174.804 133.759 178.921 141.879 183.44 148.421C186.235 152.466 192.047 159.595 192.551 159.595C193.236 159.595 192.807 158.678 190.909 156.086C181.756 143.582 175.11 130.159 172.485 118.873C171.926 116.468 170.731 109.126 170.731 108.095C170.731 107.658 171.015 107.386 172.079 106.803C176.897 104.165 181.177 99.9497 183.563 95.4921C185.221 92.3938 186.07 89.5987 186.799 84.8387C187.554 79.9036 188.036 78.0017 189.038 76.0076C190.341 73.4141 192.061 72.3665 194.128 72.9068C194.625 73.0367 195.207 73.3311 195.421 73.5606C195.635 73.7902 197.274 77.5019 199.064 81.8084C202.869 90.968 204.159 93.8716 206.485 98.5113C209.47 104.465 212.486 109.443 216.032 114.272L217.917 116.837L217.864 119.618C217.782 123.905 218.277 125.33 220.268 126.54C220.802 126.865 221.321 127.243 221.421 127.381C221.676 127.731 221.424 129.266 220.754 131.438C220.013 133.84 220.012 134.343 220.749 134.343C221.244 134.343 221.416 134.085 222.15 132.238C222.61 131.081 223.097 129.706 223.231 129.183L223.475 128.232L225.99 128.355C228.792 128.493 231.8 128.17 232.307 127.678C232.594 127.399 232.587 127.304 232.255 126.981C231.955 126.691 231.407 126.608 229.792 126.608C226.295 126.608 222.544 125.613 221.188 124.326C220.147 123.338 219.85 121.891 220.026 118.66C220.164 116.137 220.847 112.787 221.694 110.483C222.316 108.789 222.193 108.175 221.005 107.043C220.425 106.49 219.95 105.864 219.95 105.652C219.95 105.438 220.681 104.74 221.589 104.086C224.349 102.1 226.761 99.3648 230.289 94.2195C232.079 91.6087 233.544 89.3307 233.544 89.1576C233.544 88.7381 232.836 88.7574 232.193 89.194C231.909 89.3874 229.975 91.7677 227.896 94.4834C223.395 100.363 223.248 100.522 220.488 102.526C217.143 104.954 216.911 105.585 218.657 107.494C220.278 109.265 220.281 109.2 218.4 114.765C218.32 115.002 218.206 114.939 217.987 114.537C217.821 114.231 216.815 112.548 215.753 110.796C213.576 107.209 210.087 100.415 207.458 94.6438C202.815 84.4488 193.888 62.3144 192.214 56.8439L191.181 53.4663L191.961 52.6234C193.576 50.8803 194.159 49.0687 193.702 47.2189C193.233 45.3206 192.034 44.3685 191.169 45.208ZM97.5898 49.1808L97.1213 50.2417L96.3565 49.5221C95.4535 48.6724 94.9348 48.6314 93.5222 49.2975C92.5887 49.7378 92.374 49.7612 91.5823 49.51C90.7946 49.2598 90.5614 49.2837 89.5545 49.7184C88.5612 50.1473 88.2856 50.1775 87.3804 49.9564C86.049 49.6308 85.4187 49.9179 85.4187 50.85C85.4187 51.649 85.9156 51.9595 87.4763 52.1349C88.2509 52.2221 88.9343 52.1306 89.7547 51.8303C91.463 51.2044 94.6083 51.2645 95.7312 51.9443C97.1815 52.8222 98.3691 52.4871 99.0992 50.994C99.5485 50.0751 99.5986 48.78 99.2 48.393C98.6171 47.8272 98.0691 48.0954 97.5898 49.1808ZM134.755 53.8892L133.348 54.1488L133.276 55.2605L133.203 56.3723L133.979 56.2213C136.58 55.7151 137.502 55.7772 137.806 56.4786C138.175 57.3312 138.338 61.3514 138.133 64.5355C137.887 68.3536 137.3 71.9445 136.283 75.8554C135.45 79.0586 135.433 79.3198 136.025 79.8392C136.639 80.3793 137.499 80.2134 137.857 79.4859C138.384 78.4146 139.55 73.5591 140.062 70.3013C140.743 65.9697 140.813 57.7963 140.186 55.7893C139.606 53.9304 139.17 53.5743 137.509 53.6048C136.767 53.6185 135.528 53.7463 134.755 53.8892ZM91.6793 54.945C87.485 55.0385 86.5332 55.1197 86.3508 55.4C86.0241 55.9025 86.0717 56.1953 86.5484 56.6142C87.2093 57.1948 89.1511 57.4475 92.9506 57.4475C96.1219 57.4475 96.4763 57.4068 96.9031 56.9925C97.4288 56.4822 97.5504 55.0433 97.0789 54.9125C96.9179 54.8679 94.4879 54.8824 91.6793 54.945ZM125.848 55.3991C125.333 55.4962 124.14 55.7001 123.197 55.852C122.06 56.0354 121.276 56.3016 120.867 56.6435C120.255 57.154 120.248 57.1952 120.082 61.3412C119.989 63.6416 119.789 66.2404 119.638 67.1163C119.126 70.069 117.472 76.6647 117.029 77.5153C116.476 78.5795 116.468 79.4356 117.01 79.7168C117.241 79.8365 119.112 80.1015 121.17 80.3058C124.552 80.6414 125.226 80.6443 128.192 80.3363C131.915 79.9498 132.911 79.6806 133.133 79.0015C133.389 78.2176 132.646 77.8736 131.123 78.0704C128.906 78.3563 120.053 78.2863 119.486 77.978L118.983 77.7043L120.01 74.7992C121.684 70.061 122.479 65.4346 122.431 60.7042C122.412 58.8694 122.488 58.2231 122.751 57.9676C122.944 57.7803 123.935 57.5289 124.999 57.397L126.903 57.1611V56.1669C126.903 55.62 126.877 55.1836 126.845 55.1975C126.812 55.2112 126.364 55.3019 125.848 55.3991ZM134.831 61.431C134.765 61.4947 132.514 61.6328 129.829 61.7379C123.838 61.9723 124.199 61.7391 123.411 65.8825C123.115 67.437 122.671 69.5689 122.423 70.6202C121.992 72.4491 121.991 72.551 122.387 72.9782C123.131 73.7797 123.869 73.8782 128.895 73.8473C134.9 73.8104 134.746 73.8746 135.506 71.0939C136.767 66.4799 137.001 63.0963 136.147 61.8314C135.829 61.36 135.124 61.1457 134.831 61.431ZM134.828 63.9877C134.894 64.6499 133.595 71.3923 133.318 71.828C133.255 71.9267 131.246 72.0075 128.854 72.0075H124.505L124.668 71.4956C125.187 69.871 125.498 68.2574 125.62 66.5475C125.851 63.3291 125.485 63.6394 129.069 63.6228C130.778 63.615 132.598 63.5126 133.114 63.3955C134.509 63.0788 134.746 63.1605 134.828 63.9877ZM130.686 65.19C130.025 65.7242 129.412 65.7631 129.012 65.2963C128.33 64.4982 127.323 65.1891 127.966 66.0136C128.461 66.6474 128.386 66.9575 127.489 67.9742C126.654 68.9208 126.419 69.7325 126.979 69.7325C127.149 69.7325 127.703 69.4283 128.209 69.0564C128.715 68.6844 129.288 68.3764 129.481 68.372C129.675 68.3675 130.273 68.8509 130.81 69.4463C131.556 70.2726 131.854 70.4664 132.066 70.2653C132.28 70.0628 132.167 69.6795 131.578 68.6073L130.813 67.2127L131.577 66.4479C132.826 65.1968 132.043 64.0923 130.686 65.19ZM244.047 70.2052C239.708 70.8231 235.011 73.9808 233.815 77.0837C233.192 78.6992 233.138 81.4208 233.685 83.5954C234.132 85.3683 235.774 88.8571 237.08 90.8045C237.953 92.108 238.081 92.2049 239.056 92.3116C239.63 92.3744 240.681 92.7023 241.393 93.0401C243.003 93.8047 243.991 95.1192 244.438 97.0914C244.615 97.8722 244.966 99.0231 245.219 99.6488C245.472 100.274 245.808 101.395 245.966 102.139C246.235 103.41 246.401 103.645 248.746 106.067C250.117 107.483 251.391 108.95 251.577 109.326C251.878 109.934 251.873 110.051 251.534 110.38C250.912 110.984 249.878 110.383 247.433 107.994C246.227 106.815 245.203 105.889 245.157 105.935C245.112 105.981 244.676 107.489 244.19 109.286C243.245 112.775 243.265 113.299 244.342 113.299C244.899 113.299 245.031 113.122 245.818 111.314C246.251 110.32 246.957 110.059 248.168 110.447C250.011 111.038 251.094 113.138 250.632 115.227C250.163 117.352 248.552 118.58 246.524 118.358C245.641 118.262 245.252 118.053 244.351 117.192C243.23 116.12 242.693 115.923 242.267 116.427C241.44 117.403 239.412 124.94 238.915 128.882C238.656 130.935 238.756 136.375 239.085 138.153C239.259 139.094 238.979 139.1 237.611 138.187C234.588 136.168 231.216 135.166 227.45 135.169C224.012 135.17 222.213 135.593 218.895 137.177C212.993 139.996 206.776 145.609 202.255 152.201C198.531 157.632 196.733 161.296 190.533 176.089C185.592 187.878 185.133 188.901 183.728 191.232C181.826 194.388 179.241 196.719 174.28 199.75C172.031 201.124 171.59 201.578 172.162 201.93C173.746 202.903 178.714 200.55 182.174 197.187C185.507 193.947 187.752 189.848 192.403 178.513C199.246 161.836 201.579 157.196 206.037 151.405C208.753 147.877 213.442 143.392 216.37 141.521C222.872 137.368 229.195 136.45 234.106 138.946C236.099 139.96 238.844 142.673 239.921 144.694C241.104 146.916 241.583 148.508 242.793 154.249C244.467 162.19 246.409 168.609 249.95 177.909C254.828 190.72 262.222 207.494 268.002 218.859C270.548 223.865 274.219 229.877 275.491 231.124C276.148 231.767 276.184 231.775 276.77 231.403C277.119 231.18 277.371 230.807 277.371 230.513C277.37 230.234 276.674 228.829 275.824 227.39C273.141 222.849 270.599 218.089 268.532 213.74C258.266 192.133 250.43 172.671 247.143 160.615C245.971 156.318 245.755 155.045 246.198 155.045C246.327 155.045 247.566 156.15 248.952 157.5C255.107 163.493 261.493 167.142 268.387 168.603C271.129 169.184 275.985 169.132 278.427 168.495C282.604 167.405 285.829 165.325 289.577 161.301C294.566 155.945 296.36 152.21 296.352 147.201C296.344 142.516 295.512 138.383 293.95 135.273C292.521 132.428 290.653 130.144 285.933 125.47C280.041 119.636 278.463 117.331 277.663 113.392C277.346 111.827 277.328 111.182 277.55 109.343C278.645 100.289 278.635 100.42 278.353 98.2505C278.203 97.0969 277.859 95.579 277.588 94.8776C276.411 91.8216 273.873 89.2757 270.185 87.4509C268.328 86.5318 268.191 86.5008 265.493 86.393C262.176 86.2604 262.226 86.2276 261.763 88.8182C261.586 89.8089 261.175 91.4362 260.85 92.4343C259.811 95.6261 259.014 95.3445 259.665 92.0152C260.979 85.2926 258.658 78.079 253.652 73.327C251.778 71.5477 249.818 70.5324 247.606 70.1955C245.916 69.9382 245.923 69.9382 244.047 70.2052ZM248.611 74.5221C250.04 74.8877 251.43 75.734 252.391 76.8244C253.205 77.7469 253.49 78.605 252.984 78.605C252.848 78.605 252.102 78.1866 251.326 77.6754C247.936 75.4407 245.467 74.834 242.604 75.5324C240.916 75.9442 240.458 75.8338 240.614 75.0517C240.775 74.2388 241.682 74.0427 244.744 74.1596C246.327 74.2199 248.068 74.3831 248.611 74.5221ZM239.025 77.2969C239.316 77.7457 239.063 78.2961 238.378 78.7035C238.06 78.8926 237.898 78.8532 237.648 78.5261C237.327 78.1072 237.39 77.6179 237.836 77.0596C238.14 76.6797 238.697 76.7909 239.025 77.2969ZM269.872 91.1478C271.913 92.0173 274.124 94.9568 274.912 97.8472C275.121 98.6166 275.278 100.115 275.278 101.343C275.277 105.081 274.94 106.125 273.844 105.788C273.41 105.654 273.362 105.519 273.493 104.802C273.825 102.978 273.89 100.22 273.63 99.0022C273.049 96.2877 271.098 93.5442 268.607 91.9392C267.915 91.4931 267.282 90.9605 267.201 90.7558C267.075 90.4361 267.179 90.4057 267.935 90.5408C268.42 90.6275 269.292 90.9007 269.872 91.1478ZM238.151 97.4142C238.063 97.4989 238.057 98.0428 238.136 98.623C238.231 99.3191 238.143 100.153 237.876 101.077C237.411 102.682 237.514 103.175 238.314 103.175C239.903 103.175 240.626 98.9346 239.263 97.6115C238.88 97.24 238.415 97.1574 238.151 97.4142ZM233.603 100.102C232.644 100.506 232.163 101.406 232.621 101.941C233.298 102.733 235.887 101.85 235.887 100.827C235.887 99.7793 235.019 99.5038 233.603 100.102ZM152.919 103.09C151.178 103.781 148.858 104.598 147.762 104.907C145.456 105.558 137.878 106.815 136.264 106.815C133.174 106.815 132.923 107.2 133.795 110.614C134.838 114.702 135.974 116.366 137.101 115.458C137.581 115.071 137.537 114.502 136.861 112.389C136.234 110.432 136.12 109.211 136.54 108.96C136.684 108.873 138.187 108.712 139.88 108.601C141.573 108.491 143.907 108.245 145.067 108.055C147.585 107.643 152.061 106.216 154.721 104.978C155.777 104.487 156.753 104.085 156.891 104.085C157.028 104.085 157.691 105.16 158.364 106.474C159.037 107.788 159.643 108.862 159.71 108.862C159.778 108.862 160.28 108.478 160.826 108.009L161.82 107.156L160.417 104.995C157.988 101.254 157.719 101.185 152.919 103.09ZM273.579 108.576C273.489 109.336 272.791 109.545 272.572 108.878C272.376 108.278 272.591 107.952 273.182 107.952C273.557 107.952 273.638 108.079 273.579 108.576ZM147.869 108.501C146.891 109.195 147.566 111.484 149.271 113.254C149.821 113.824 150.156 114.432 150.256 115.038C150.339 115.544 150.653 116.241 150.954 116.588C151.448 117.157 151.487 117.366 151.355 118.73C151.233 119.998 151.278 120.316 151.633 120.696C152.248 121.356 153.663 121.671 154.742 121.388C156.103 121.033 156.531 120.644 156.347 119.932C156.202 119.37 156.101 119.327 154.906 119.327C153.517 119.327 153.393 119.176 153.973 118.19C154.534 117.239 154.381 116.742 153.153 115.526C152.263 114.644 151.981 114.197 151.981 113.668C151.981 113.166 151.688 112.652 150.927 111.82C150.267 111.099 149.872 110.452 149.872 110.091C149.872 109.464 149.484 108.62 149.075 108.354C148.691 108.105 148.372 108.144 147.869 108.501ZM236.403 111.866C235.757 112.492 236.183 113.64 237.062 113.64C237.373 113.64 237.997 112.958 237.997 112.616C237.997 112.231 237.358 111.593 236.972 111.593C236.814 111.593 236.558 111.715 236.403 111.866ZM164.571 113.339C164.092 113.67 163.7 114.043 163.7 114.168C163.7 114.482 164.829 116.346 165.485 117.116C165.782 117.463 165.97 117.884 165.904 118.052C165.599 118.823 156.536 122.538 152.278 123.637C151.732 123.778 150.994 124.146 150.637 124.455L149.989 125.016L150.574 125.496C151.047 125.883 151.362 125.951 152.215 125.85C154.846 125.537 160.844 123.487 164.975 121.489C169.185 119.451 169.367 118.859 166.971 114.987C166.318 113.933 165.708 112.996 165.613 112.904C165.519 112.812 165.05 113.008 164.571 113.339ZM232.85 113.06C232.362 113.631 232.652 114.209 233.427 114.209C233.911 114.209 234.148 114.084 234.204 113.8C234.297 113.331 233.861 112.73 233.427 112.73C233.265 112.73 233.005 112.879 232.85 113.06ZM143.954 113.658C142.687 114.374 144.513 121.361 147.552 127.429C148.814 129.949 149.843 131.46 150.546 131.825C150.895 132.006 151.122 131.965 151.525 131.648L152.051 131.235L151.169 129.775C148.796 125.845 145.875 118.144 145.794 115.603C145.755 114.371 145.651 113.973 145.302 113.726C144.782 113.357 144.511 113.344 143.954 113.658ZM222.537 115.335C221.79 116.209 223.108 117.09 225.619 117.395C228.335 117.724 230.815 116.917 230.248 115.888C230.021 115.477 229.837 115.451 228.08 115.586C226.688 115.692 225.723 115.633 224.564 115.369C222.648 114.932 222.879 114.936 222.537 115.335ZM235.351 115.829C235.053 116.118 235.175 116.989 235.556 117.296C236.09 117.726 236.708 117.278 236.708 116.459C236.708 115.924 236.597 115.789 236.113 115.734C235.786 115.697 235.443 115.74 235.351 115.829ZM138.722 116.477C137.945 117.629 139.007 121.379 141.781 127.28C143.763 131.496 144.744 132.76 145.744 132.387C146.495 132.107 146.4 131.393 145.346 129.39C143.06 125.041 140.85 119.665 140.369 117.28C140.077 115.834 139.384 115.496 138.722 116.477ZM134.771 119.685C133.865 120.565 134.503 122.755 137.121 127.745C139.6 132.469 140.744 134.219 141.65 134.674C142.323 135.012 142.392 135.005 142.849 134.562C143.474 133.955 143.402 133.759 141.397 130.643C139.493 127.684 136.949 122.728 136.412 120.933C135.939 119.351 135.477 119 134.771 119.685ZM245.872 120.126C246.391 120.895 246.221 122.98 245.571 123.83C244.883 124.728 243.614 124.797 242.946 123.973C242.378 123.272 242.335 122.54 242.79 121.303C243.248 120.056 243.797 119.555 244.707 119.555C245.28 119.555 245.588 119.706 245.872 120.126ZM131.178 124.597C130.167 125.577 132.194 130.642 135.666 135.812C137.14 138.007 137.867 138.602 138.606 138.218C138.873 138.08 139.091 137.771 139.091 137.531C139.091 137.292 138.188 135.642 137.084 133.865C134.565 129.807 134.024 128.785 133.126 126.38C132.578 124.914 132.29 124.43 131.936 124.381C131.678 124.345 131.337 124.442 131.178 124.597ZM155.639 127.195C155.561 127.393 155.497 128.293 155.497 129.195C155.497 131.552 155.002 133.164 153.273 136.434C151.643 139.517 151.44 140.257 152.221 140.257C152.722 140.257 154.593 137.684 155.835 135.288C157.189 132.674 157.811 128.455 157.007 127.341C156.583 126.753 155.845 126.674 155.639 127.195ZM288.135 133.217C289.571 134.952 291.557 139.75 292.125 142.859C293.187 148.668 291.05 154.837 286.305 159.657C283.512 162.495 280.559 164.05 276.669 164.731C274.006 165.197 272.316 165.152 271.747 164.6C271.194 164.064 271.175 163.914 271.59 163.364C271.835 163.038 272.422 162.904 274.343 162.736C276.985 162.506 279.566 161.784 281.33 160.784C282.894 159.898 286.133 156.798 287.311 155.062C288.399 153.457 289.37 151.279 289.807 149.461C290.162 147.986 290.159 144.398 289.801 142.533C289.441 140.652 288.161 136.931 287.091 134.653C286.636 133.683 286.316 132.755 286.381 132.592C286.604 132.025 287.376 132.3 288.135 133.217ZM224.31 140.153C222.697 140.546 220.148 141.715 219.583 142.322C219.149 142.787 219.268 143.378 219.839 143.59C220.041 143.665 220.917 143.41 221.784 143.021C223.644 142.189 226.144 141.663 228.72 141.562C230.15 141.505 230.633 141.4 230.825 141.105C231.015 140.813 230.978 140.627 230.669 140.327C230.111 139.786 226.248 139.68 224.31 140.153ZM152.458 141.954C151.82 142.7 152.704 149.045 154.265 154.931L155.17 158.344L153.048 158.268C149.269 158.132 147.272 159.254 143.961 163.374C140.379 167.83 139.99 168.349 139.41 169.449C139.092 170.052 138.708 170.505 138.556 170.456C137.765 170.2 137.151 162.259 137.363 155.039C137.507 150.154 137.485 149.652 137.117 149.294C136.895 149.079 136.618 148.902 136.501 148.902C135.988 148.902 135.602 150.103 135.379 152.394C135.056 155.723 134.621 156.502 131.107 160.05C129.558 161.614 127.721 163.61 127.024 164.486C122.21 170.535 119.76 177.909 121.2 182.012C121.734 183.533 123.386 185.115 124.858 185.515C127.86 186.331 131.294 185.118 134.372 182.154C136.504 180.101 138.067 177.87 140.853 172.904C143.509 168.17 145.475 165.303 147.524 163.173C149.655 160.958 150.775 160.404 152.802 160.561C153.618 160.625 154.691 160.869 155.184 161.103C156.061 161.519 156.114 161.617 157.391 165.169C158.11 167.171 159.149 169.833 159.701 171.084C160.673 173.29 163.677 179.248 164.748 181.094C167.458 185.767 170.127 190.081 170.63 190.605C171.325 191.328 171.986 191.333 172.092 190.616C172.133 190.335 170.497 186.955 168.183 182.542C165.994 178.367 163.549 173.467 162.75 171.653C160.472 166.483 158.295 159.75 156.091 151.064C154.979 146.684 153.992 142.794 153.897 142.419C153.698 141.638 152.938 141.393 152.458 141.954ZM269.027 162.621C269.304 162.817 269.417 163.141 269.365 163.587C269.295 164.184 269.197 164.259 268.493 164.259C267.45 164.259 267.061 163.461 267.768 162.775C268.313 162.245 268.471 162.226 269.027 162.621ZM231.95 163.521C231.808 163.687 231.527 165.201 231.325 166.885C229.558 181.616 222.286 198.096 211.402 212.034C203.573 222.06 198.311 226.623 189.734 230.826C184.333 233.473 179.494 234.574 174.05 234.393C171.153 234.297 170.611 234.21 168.356 233.47C163.655 231.929 158.56 229.105 154.759 225.934C152.066 223.687 147.676 218.487 144.082 213.285C140.517 208.126 133.863 197.78 132.194 194.801C131.39 193.367 130.876 192.958 130.54 193.486C130.138 194.117 134.623 202.939 138.811 209.759C142.402 215.606 147.059 221.849 150.291 225.145C155.426 230.382 162.694 234.758 168.777 236.274C178.015 238.576 191.289 234.63 201.083 226.672C206.481 222.285 213.28 214.377 218.498 206.416C222.628 200.116 228.049 188.848 230.244 182.004C231.437 178.284 233.309 168.336 233.304 165.738C233.302 163.939 232.589 162.774 231.95 163.521Z" fill="#EB5757"/>
</svg>
